# xmcd
# 
# Track frame offsets:
#     150
#     24955
#     35321
#     51023
#     63551
#     86473
#     99524
#     132607
#     144452
#     178552
#     193016
#     211513
#     230883
#     260748
#     282053
#     302923
# 
# Disc length: 4150
# 
# Revision: 0
# Processed by: cddbd v1.5.2PL0 Copyright (c) Steve Scherf et al.
# Submitted via: fre:ac v1.0.31
# 
DISCID=e2103410
DTITLE=The City of Prague Philharmonic Orchestra - 100 Greatest Western Themes
DYEAR=2010
DGENRE=Soundtrack
TTITLE0=The rare breed
TTITLE1=Rawhide
TTITLE2=Red river
TTITLE3=Red sun
TTITLE4=Rio bravo
TTITLE5=The scalphunters
TTITLE6=The searchers
TTITLE7=Shane
TTITLE8=She wore a yellow ribbon
TTITLE9=The shootist
TTITLE10=Silverado
TTITLE11=The sons of Katie Elder
TTITLE12=Steagecoach
TTITLE13=Tension at table rock
TTITLE14=True grit
TTITLE15=True grit
EXTD=Collection
EXTT0=Suite (John Williams)
EXTT1=Rawhide (Dimitri Tiomkin)
EXTT2=River Crossing (Dimitri Tiomkin)
EXTT3=Main theme (Maurice Jarre)
EXTT4=Rio Bravo and De Guello (Dmitri Tiomkin)
EXTT5=Main Titles (Elmer Bernstein)
EXTT6=Suite (Max Steiner)
EXTT7=The Call of the Faraway Hills (Victor Young)
EXTT8=Suite (Richard Hageman)
EXTT9=Main Titles (Elmer Bernstein)
EXTT10=Silverado (Bruce Broughton)
EXTT11=Concert Suite (Elmer Bernstein)
EXTT12=Narrative of Orchestra (Richard Hageman)
EXTT13=Suite (Dimitri Tiomkin)
EXTT14=Rooster and Le Boeuf - Warm Wrap Up (Elmer Bernstein)
EXTT15=True Grit (Elmer Bernstein)
PLAYORDER=
